<svg width="239" height="56" viewBox="0 0 239 56" fill="none" xmlns="http://www.w3.org/2000/svg">
<path fill-rule="evenodd" clip-rule="evenodd" d="M0 7.30577L24.9046 0L49.8091 7.30577V14.7133L24.9046 7.40753L0 14.7133V7.30577ZM24.9046 38.5514C22.2908 38.5514 20.2685 36.3889 19.849 32.0385L24.9046 30.5587L29.9602 32.0385C29.5406 36.3889 27.5184 38.5514 24.9046 38.5514ZM19.7944 29.2782C19.8909 27.0097 20.2979 24.296 20.9482 21.5314L24.9046 20.3696L28.8609 21.5314C29.5112 24.296 29.9182 27.0097 30.0147 29.2782L24.9046 27.7772L19.7944 29.2782ZM21.7454 18.5209C22.5928 15.6419 23.6753 12.8561 24.9046 10.6088C26.1381 12.8561 27.2205 15.6419 28.068 18.5209L24.9046 17.5966L21.7454 18.5209ZM49.8133 55.4526H0.00419551V48.0451L24.9088 40.7393L49.8133 48.0451V55.4526ZM49.8133 40.8707L30.7112 35.2695C30.9629 34.4045 31.1433 33.4505 31.244 32.4159L49.8133 37.8602V40.8707ZM19.1022 35.2695L0.00419551 40.8707V37.8602L18.5693 32.4159C18.6742 33.4547 18.8546 34.4045 19.1022 35.2695ZM30.2748 36.5288L49.8133 42.2615V45.2678L28.6596 39.0644C29.3015 38.403 29.8469 37.5507 30.2748 36.5288V36.5288ZM21.1538 39.0644L0.00419551 45.2678V42.2615L19.5427 36.5288C19.9706 37.5507 20.5119 38.403 21.1538 39.0644V39.0644ZM49.8133 30.6859L30.9377 25.1483C30.7825 24.0967 30.5895 23.0325 30.3587 21.9724L49.8133 27.6754V30.6859ZM18.8798 25.1483L0.00419551 30.6859V27.6754L19.4546 21.9724C19.228 23.0367 19.035 24.101 18.8798 25.1483V25.1483ZM31.1265 26.5942L49.8133 32.0767V35.0829L31.3405 29.6683C31.3195 28.6761 31.244 27.6457 31.1265 26.5942ZM18.477 29.6683L0.00419551 35.0829V32.0767L18.691 26.5942C18.5735 27.65 18.498 28.6761 18.477 29.6683V29.6683ZM49.8133 20.5011L28.0848 14.1282C27.6275 12.8985 27.145 11.741 26.6499 10.6979L49.8133 17.4906V20.5011ZM21.7328 14.1282L0.00419551 20.5011V17.4948L23.1676 10.6979C22.6726 11.741 22.1901 12.8985 21.7328 14.1282ZM28.6344 15.68L49.8133 21.8919V24.9024L29.6371 18.9831C29.3308 17.8552 28.991 16.7443 28.6344 15.68ZM20.1804 18.9831L0.00419551 24.9024V21.8919L21.1832 15.68C20.8223 16.7443 20.4867 17.8552 20.1804 18.9831V18.9831Z" fill="url(#paint0_linear_1_133)"/>
<path fill-rule="evenodd" clip-rule="evenodd" d="M72.0452 23.7632V23.4248C72.0452 18.7321 71.5304 16.8785 69.412 16.8785H68.4411C66.2345 16.8785 65.8079 18.835 65.8079 23.8808V33.59C65.8079 39.2537 65.9697 40.8719 68.4411 40.8719H69.4414C71.7657 40.8719 72.0452 39.4008 72.0452 34.2814V33.59H73.9429V35.2817C73.9429 40.9454 72.6484 43.6375 69.7651 43.6375H68.0586C64.528 43.6375 63.9102 39.6362 63.9102 34.5462V23.8808C63.9102 17.1874 65.1606 14.0981 68.5146 14.0981H69.4561C72.7072 14.0981 73.9429 16.5696 73.9429 22.4245V23.7632H72.0452ZM83.2696 23.0718V25.4696H79.8273V43.2992H78.2385V25.4696H74.7962V23.0718H83.2696ZM86.1971 25.4696C87.0062 23.5719 87.9477 22.7334 89.3011 22.7334C91.846 22.7334 92.5963 25.6167 92.5963 31.9277V35.0464C92.5963 40.8277 91.8019 43.6375 89.2569 43.6375C87.9771 43.6375 86.9767 42.799 86.2853 41.0631V50.7575H84.6966V23.0718H86.1971V25.4696ZM86.2853 34.8257C86.2853 39.1801 86.7708 41.269 88.8009 41.269C90.4926 41.269 90.9487 39.2242 90.9487 34.9434V31.4863C90.9487 27.1614 90.4926 25.1313 88.8009 25.1313C86.7708 25.1313 86.2853 27.2055 86.2853 31.604V34.8257ZM103.041 35.5171C103.041 41.475 102.055 43.6375 98.9808 43.6375C95.9209 43.6375 94.8765 41.475 94.8765 35.5465V30.7802C94.8765 24.8076 95.9504 22.7334 99.0102 22.7334C102.07 22.7334 103.041 24.8076 103.041 30.7361V35.5171ZM96.5388 35.5613C96.5388 39.6362 96.8771 41.0631 98.9808 41.0631C101.07 41.0631 101.379 39.6803 101.379 35.5907V30.7802C101.379 26.7053 101.099 25.3078 98.9808 25.3078C96.8918 25.3078 96.5388 26.6612 96.5388 30.7361V35.5613ZM106.969 39.9598L111.691 23.0865H113.75V43.3139H112.25V26.2493L107.513 43.3139H105.468V23.0865H106.969V39.9598ZM108.219 17.5552C108.219 19.1292 108.763 19.4088 109.734 19.4088C110.691 19.4088 111.014 19.1734 111.014 17.5552H112C112 20.4091 111.353 21.1299 109.646 21.1299C107.91 21.1299 107.278 20.4091 107.278 17.5552H108.219ZM118.281 43.3139H116.501V14.4659H121.282C124.99 14.4659 126.314 15.5545 126.314 21.5565V24.9106C126.314 30.9568 124.99 32.0748 121.282 32.0748H118.281V43.3139ZM118.281 29.368H121.032C123.474 29.368 124.416 29.0591 124.416 25.7491V20.7769C124.416 17.3934 123.474 17.158 121.032 17.158H118.281V29.368ZM130.256 33.7665V35.6054C130.256 39.7244 130.491 41.0778 132.654 41.0778C134.581 41.0778 135.243 40.3423 135.243 37.6502V37.0323H136.743V37.6502C136.743 42.0046 135.464 43.6522 132.654 43.6522C129.594 43.6522 128.594 41.4603 128.594 35.5318V30.7655C128.594 24.7929 129.623 22.7481 132.683 22.7481C135.743 22.7481 136.743 24.8223 136.743 30.7655V33.7665H130.256ZM135.14 31.3687V29.9123C135.14 26.3376 134.64 25.1313 132.698 25.1313C130.771 25.1313 130.256 26.3376 130.256 29.9123V31.3687H135.14ZM141.686 23.1012L144.82 40.3423L147.953 23.1012H150.498V43.3139H148.998V25.0283L145.599 43.3139H144.04L140.642 25.0283V43.3139H139.141V23.1012H141.686ZM155.029 26.8377H155.956L161.605 14.4659H163.591L157.309 28.147L164.4 43.3139H162.179L155.735 29.5298H155.029V43.3139H153.249V14.4659H155.029V26.8377ZM173.712 35.5465C173.712 41.5191 172.711 43.6669 169.652 43.6669C166.592 43.6669 165.547 41.5191 165.547 35.5907V30.8096C165.547 24.8371 166.606 22.7628 169.666 22.7628C172.741 22.7628 173.712 24.8371 173.712 30.7655V35.5465ZM167.21 35.5907C167.21 39.6656 167.533 41.0925 169.652 41.0925C171.741 41.0925 172.049 39.7097 172.049 35.6348V30.8096C172.049 26.7347 171.755 25.3519 169.652 25.3519C167.563 25.3519 167.21 26.6906 167.21 30.7802V35.5907ZM178.669 23.1159L181.803 40.357L184.936 23.1159H187.466V43.3286H185.981V25.0283L182.582 43.3286H181.023L177.625 25.0283V43.3286H176.124V23.1159H178.669ZM196.219 25.499H191.63V43.3286H190.041V23.1159H197.808V43.3286H196.219V25.499ZM208.856 23.1159V43.3286H207.267V25.499H202.692V37.4737C202.692 40.71 202.148 43.3286 200.177 43.3286H199.353V40.8277H199.588C200.721 40.8277 201.103 40.357 201.103 37.4001V23.1159H208.856ZM212.931 33.7812V35.6201C212.931 39.7391 213.181 41.0925 215.329 41.0925C217.256 41.0925 217.918 40.357 217.918 37.6649V37.047H219.418V37.6649C219.418 42.0193 218.139 43.6669 215.329 43.6669C212.269 43.6669 211.269 41.475 211.269 35.5465V30.7655C211.269 24.8076 212.298 22.7628 215.358 22.7628C218.418 22.7628 219.418 24.8371 219.418 30.7655V33.7812H212.931ZM217.815 31.3834V29.927C217.815 26.3376 217.315 25.146 215.373 25.146C213.446 25.146 212.931 26.3376 212.931 29.927V31.3834H217.815ZM223.42 31.3834H224.038L227.377 23.1159H229.113L225.435 32.2366L229.819 43.3286H227.951L224.199 33.7812H223.42V43.3286H221.816V23.1159H223.42V31.3834ZM237.086 29.721V29.368C237.086 26.4111 236.498 25.3372 234.894 25.3372C232.879 25.3372 232.629 26.72 232.629 30.7655V35.576C232.629 39.6214 232.908 41.0778 234.968 41.0778C236.865 41.0778 237.292 39.9304 237.292 36.6499V35.8408H238.954V36.694C238.954 41.6221 237.748 43.6669 235.041 43.6669C231.981 43.6669 230.966 41.5486 230.966 35.576V30.7949C230.966 24.8371 232.011 22.7481 235.071 22.7481C237.66 22.7481 238.748 24.484 238.748 28.7648V29.721H237.086Z" fill="#0F658F"/>
<defs>
<linearGradient id="paint0_linear_1_133" x1="0.016778" y1="29.7149" x2="49.8175" y2="29.7149" gradientUnits="userSpaceOnUse">
<stop stop-color="#173852"/>
<stop offset="0.489583" stop-color="#2F91BC"/>
<stop offset="1" stop-color="#173852"/>
</linearGradient>
</defs>
</svg>
